<svg width="18" height="12" viewBox="0 0 18 12" fill="none" xmlns="http://www.w3.org/2000/svg">
<path d="M7.0683 2.00394H5.30463L4.00718 11.196H2.4144L3.71186 2.00394H1.94819L2.14596 0.602786H7.26607L7.0683 2.00394ZM9.20541 3.37801H7.63998L7.86546 1.78056H9.43089L9.20541 3.37801ZM8.08823 11.196H6.55015L7.51512 4.35949H9.0532L8.08823 11.196ZM15.806 11.196H14.2679L15.0055 5.97048C15.0444 5.69521 15.1304 5.31164 15.2636 4.81977L13.1194 10.2281H12.3059L11.6816 4.81977C11.6747 5.32067 11.6525 5.70424 11.6149 5.97048L10.8773 11.196H9.33921L10.8344 0.602786H12.3452L13.2004 6.45783C13.2097 6.52101 13.2008 6.68121 13.1736 6.93842C13.1895 6.82561 13.2258 6.66541 13.2824 6.45783L15.7905 0.602786H17.3012L15.806 11.196Z" fill="white"/>
</svg>
